HIERARCHY
ROOT Hips
{
    OFFSET 0.000000 0.000000 0.000000
    CHANNELS 6 Xposition Yposition Zposition Zrotation Xrotation Yrotation
    JOINT Spine
    {
        OFFSET -0.000000 14.517291 0.000000
        CHANNELS 3 Zrotation Xrotation Yrotation
        JOINT Spine1
        {
            OFFSET -0.000000 37.558300 0.000000
            CHANNELS 3 Zrotation Xrotation Yrotation
            JOINT Neck
            {
                OFFSET -0.000000 37.404057 3.400369
                CHANNELS 3 Zrotation Xrotation Yrotation
                JOINT Head
                {
                    OFFSET -0.000000 24.785618 -3.540803
                    CHANNELS 3 Zrotation Xrotation Yrotation
                    End Site
                    {
                        OFFSET -0.000000 35.408028 0.000000
                    }
                }
            }
            JOINT LeftShoulder
            {
                OFFSET 6.992933 33.973492 -0.192664
                CHANNELS 3 Zrotation Xrotation Yrotation
                JOINT LeftArm
                {
                    OFFSET 21.527611 0.000000 0.000000
                    CHANNELS 3 Zrotation Xrotation Yrotation
                    JOINT LeftForeArm
                    {
                        OFFSET 56.353916 0.000000 0.000000
                        CHANNELS 3 Zrotation Xrotation Yrotation
                        JOINT LeftHand
                        {
                            OFFSET 47.774071 0.000000 0.000000
                            CHANNELS 3 Zrotation Xrotation Yrotation
                            End Site
                            {
                                OFFSET 26.556021 0.000000 0.000000
                            }
                        }
                    }
                }
            }
            JOINT RightShoulder
            {
                OFFSET -7.065357 33.973492 -0.192664
                CHANNELS 3 Zrotation Xrotation Yrotation
                JOINT RightArm
                {
                    OFFSET -21.527611 0.000000 0.000000
                    CHANNELS 3 Zrotation Xrotation Yrotation
                    JOINT RightForeArm
                    {
                        OFFSET -56.353916 0.000000 0.000000
                        CHANNELS 3 Zrotation Xrotation Yrotation
                        JOINT RightHand
                        {
                            OFFSET -47.774071 0.000000 0.000000
                            CHANNELS 3 Zrotation Xrotation Yrotation
                            End Site
                            {
                                OFFSET -26.556021 0.000000 0.000000
                            }
                        }
                    }
                }
            }
        }
    }
    JOINT LeftUpLeg
    {
        OFFSET 17.704014 0.000000 0.000000
        CHANNELS 3 Zrotation Xrotation Yrotation
        JOINT LeftLeg
        {
            OFFSET -0.000000 -81.181816 0.000000
            CHANNELS 3 Zrotation Xrotation Yrotation
            JOINT LeftFoot
            {
                OFFSET -0.000000 -62.821102 0.000000
                CHANNELS 3 Zrotation Xrotation Yrotation
                JOINT LeftToeBase
                {
                    OFFSET -0.000000 -11.507608 26.556021
                    CHANNELS 3 Zrotation Xrotation Yrotation
                    End Site
                    {
                        OFFSET -0.000000 0.000000 7.081605
                    }
                }
            }
        }
    }
    JOINT RightUpLeg
    {
        OFFSET -17.704014 0.000000 0.000000
        CHANNELS 3 Zrotation Xrotation Yrotation
        JOINT RightLeg
        {
            OFFSET -0.000000 -81.181816 0.000000
            CHANNELS 3 Zrotation Xrotation Yrotation
            JOINT RightFoot
            {
                OFFSET -0.000000 -62.821102 0.000000
                CHANNELS 3 Zrotation Xrotation Yrotation
                JOINT RightToeBase
                {
                    OFFSET -0.000000 -11.507608 26.556021
                    CHANNELS 3 Zrotation Xrotation Yrotation
                    End Site
                    {
                        OFFSET -0.000000 0.000000 7.081605
                    }
                }
            }
        }
    }
}
MOTION
Frames:    11
Frame Time:    0.008333
35.959167    159.721069    -97.792473    -2.201747    -0.695255    23.662235    -0.091606    -6.172215    -2.268582    -7.888552    2.857205    -0.555143    17.071146    -0.004405    3.358736    1.687812    0.330745    1.174511    9.590691    6.251143    -13.233482    -37.889721    11.844190    -52.507725    -8.191715    -23.088436    -116.075737    -3.942761    -34.292789    -11.755045    -11.983103    0.816012    -8.475437    11.957359    8.216617    19.274229    22.279438    24.384464    57.930801    24.847111    15.937528    15.925749    9.358042    4.406066    1.017852    -8.936212    19.897385    -17.089714    5.432685    -22.857809    44.860126    0.000000    0.000000    0.000000    -10.948092    -24.214375    -5.339399    9.853204    24.184805    -12.327687    1.008635    8.636824    -12.680135    0.000000    0.000000    0.000000    
35.980503    159.725769    -97.781853    -2.213556    -0.698485    23.671244    -0.092605    -6.164169    -2.272774    -7.918531    2.841877    -0.556770    17.110903    -0.000886    3.357477    1.666000    0.310216    1.165011    9.611714    6.261160    -13.244656    -37.954433    11.762281    -52.513775    -8.238266    -22.980459    -116.076363    -3.930703    -34.259491    -11.769226    -12.000130    0.749496    -8.481680    11.928497    8.260128    19.349781    22.326307    24.104717    56.390026    24.846254    16.038109    16.103294    9.363091    4.411711    0.998384    -8.935019    19.891104    -17.082418    5.427096    -22.862425    44.863155    0.000000    0.000000    0.000000    -10.938546    -24.193737    -5.313916    9.859088    24.154444    -12.344871    1.013984    8.637727    -12.701681    0.000000    0.000000    0.000000    
36.001461    159.728485    -97.774323    -2.226810    -0.693899    23.681990    -0.096242    -6.156392    -2.276984    -7.944081    2.812875    -0.559540    17.119160    0.016598    3.346642    1.679289    0.273633    1.157500    9.626640    6.282578    -13.268924    -37.974400    11.718166    -52.497841    -8.259797    -22.942471    -116.093239    -3.890702    -34.261150    -11.775072    -12.032839    0.693925    -8.490750    11.920311    8.217121    19.443527    22.518736    23.891066    54.746330    24.703537    16.131542    16.272985    9.366978    4.407553    0.995595    -8.930816    19.885542    -17.106972    5.440613    -22.860523    44.884060    0.000000    0.000000    0.000000    -10.932093    -24.184267    -5.322818    9.852517    24.135258    -12.309384    1.012936    8.635965    -12.742624    0.000000    0.000000    0.000000    
36.019962    159.733337    -97.763412    -2.240053    -0.694589    23.685690    -0.105751    -6.147013    -2.275856    -7.956820    2.792610    -0.560076    17.112865    0.011752    3.333925    1.708793    0.262851    1.148829    9.636387    6.301001    -13.287657    -38.014011    11.668916    -52.508377    -8.279961    -22.903879    -116.100639    -3.900077    -34.254616    -11.778728    -12.078674    0.631187    -8.494924    11.936283    8.429081    19.517714    22.352400    23.447142    53.292789    24.731478    16.146860    16.453026    9.375264    4.409460    0.996212    -8.930205    19.884983    -17.087309    5.424164    -22.864048    44.855228    0.000000    0.000000    0.000000    -10.917961    -24.169035    -5.293215    9.852737    24.107279    -12.320194    1.006798    8.635583    -12.755426    0.000000    0.000000    0.000000    
36.042660    159.734512    -97.755898    -2.249485    -0.690826    23.697075    -0.111061    -6.140503    -2.280666    -7.993172    2.777476    -0.561725    17.156973    0.007532    3.329968    1.682953    0.251798    1.133896    9.664169    6.316383    -13.297956    -38.050148    11.632928    -52.530327    -8.299756    -22.872629    -116.104652    -3.869113    -34.257305    -11.758398    -12.092412    0.570531    -8.482737    11.909113    8.380643    19.562407    22.472717    23.254757    51.699940    24.570343    16.277439    16.615442    9.376263    4.404835    0.985823    -8.924735    19.885487    -17.093493    5.419165    -22.876108    44.859264    0.000000    0.000000    0.000000    -10.915640    -24.155535    -5.286802    9.849251    24.082987    -12.343420    1.015473    8.628951    -12.741556    0.000000    0.000000    0.000000    
36.061886    159.738571    -97.746590    -2.258812    -0.693578    23.706556    -0.119837    -6.131086    -2.286030    -8.023039    2.772583    -0.562997    17.198164    -0.014121    3.325749    1.663581    0.252646    1.117162    9.682182    6.314539    -13.306942    -38.105362    11.583116    -52.557854    -8.317725    -22.816315    -116.091270    -3.885333    -34.227375    -11.747315    -12.117972    0.510588    -8.459999    11.938830    8.523685    19.590094    22.299738    22.863796    50.268890    24.430326    16.281271    16.674742    9.381488    4.408664    1.001799    -8.918800    19.884411    -17.093458    5.425114    -22.867414    44.835854    0.000000    0.000000    0.000000    -10.903965    -24.136772    -5.283145    9.836918    24.061172    -12.337121    1.009538    8.626202    -12.749308    0.000000    0.000000    0.000000    
36.079811    159.739426    -97.736801    -2.267344    -0.695622    23.717224    -0.127243    -6.122024    -2.297590    -8.049436    2.770427    -0.566223    17.181280    -0.039910    3.311491    1.715387    0.256261    1.108189    9.684416    6.308667    -13.300035    -38.081547    11.595840    -52.575958    -8.291165    -22.856527    -116.081154    -3.868297    -34.227005    -11.743207    -12.176292    0.477519    -8.441320    12.010453    8.686205    19.629543    22.011526    22.449039    48.873447    24.511923    16.333546    16.755278    9.386478    4.411332    0.995375    -8.920703    19.879694    -17.082853    5.428374    -22.870461    44.831768    0.000000    0.000000    0.000000    -10.895355    -24.121508    -5.289691    9.824085    24.045698    -12.323775    1.010792    8.621298    -12.771287    0.000000    0.000000    0.000000    
36.103519    159.739182    -97.724693    -2.271926    -0.701245    23.725420    -0.124520    -6.115139    -2.296681    -8.097449    2.779183    -0.564213    17.175381    -0.083145    3.301476    1.773097    0.273731    1.099838    9.695135    6.301671    -13.304559    -38.054276    11.606898    -52.591114    -8.278841    -22.888075    -116.079079    -3.862838    -34.238670    -11.741018    -12.197956    0.446384    -8.437304    12.051072    8.942286    19.676205    21.594326    21.994951    47.565533    24.352617    16.348780    16.896618    9.387692    4.426166    0.998729    -8.912962    19.869120    -17.097702    5.438009    -22.861217    44.825706    0.000000    0.000000    0.000000    -10.891290    -24.098988    -5.289074    9.818902    24.026789    -12.316925    1.007014    8.608354    -12.784485    0.000000    0.000000    0.000000    
36.122940    159.741348    -97.715141    -2.284213    -0.703736    23.735743    -0.125469    -6.113187    -2.308083    -8.135960    2.791310    -0.566193    17.201208    -0.135195    3.300977    1.778540    0.306283    1.087536    9.708030    6.296613    -13.305005    -38.018356    11.646479    -52.607838    -8.235721    -22.976557    -116.072769    -3.913507    -34.253483    -11.761624    -12.207029    0.411146    -8.427658    12.104950    9.060540    19.773523    21.277826    21.683334    46.085270    24.040487    16.468706    17.040955    9.396163    4.431221    0.999015    -8.909480    19.861504    -17.120577    5.443959    -22.864872    44.838669    0.000000    0.000000    0.000000    -10.880607    -24.081369    -5.279638    9.812416    24.006533    -12.301100    1.012066    8.597400    -12.803254    0.000000    0.000000    0.000000    
36.145546    159.744995    -97.700974    -2.297064    -0.711090    23.743845    -0.132934    -6.110873    -2.319313    -8.148219    2.798759    -0.568908    17.184385    -0.144387    3.278441    1.800460    0.299009    1.068511    9.713039    6.300658    -13.310882    -38.009178    11.661688    -52.610558    -8.218732    -23.014435    -116.071083    -3.934555    -34.261833    -11.777634    -12.214781    0.460186    -8.472227    12.105961    9.062558    19.970505    21.095728    21.406248    44.508671    23.562366    16.570498    17.282061    9.404862    4.446970    0.998719    -8.908155    19.850836    -17.119640    5.450450    -22.869791    44.836117    0.000000    0.000000    0.000000    -10.862480    -24.059538    -5.282936    9.789095    23.990009    -12.300647    1.030728    8.590660    -12.804043    0.000000    0.000000    0.000000    
36.167622    159.748489    -97.691132    -2.308939    -0.709860    23.755579    -0.150839    -6.110163    -2.333814    -8.153782    2.803921    -0.572925    17.200739    -0.147156    3.270574    1.776169    0.276856    1.054304    9.709051    6.301380    -13.304029    -38.364597    11.244887    -52.529690    -8.523005    -22.226406    -116.072411    -3.812262    -33.977131    -11.792872    -12.217899    0.395647    -8.450748    12.108825    9.093678    20.057491    20.899355    21.242596    43.001980    23.272253    16.760925    17.340435    9.404600    4.453102    1.006919    -8.892263    19.831562    -17.125593    5.450179    -22.858513    44.823036    0.000000    0.000000    0.000000    -10.854443    -24.047272    -5.299809    9.770817    23.974751    -12.278363    1.022486    8.592123    -12.809896    0.000000    0.000000    0.000000    
